<svg xmlns="http://www.w3.org/2000/svg" viewBox="0 0 64 64"><g fill="#134563"><path d="M51.9 50.5H12.1c-2.4 0-4.3-1.9-4.3-4.3V17.7c0-2.4 1.9-4.3 4.3-4.3h39.8c2.4 0 4.3 1.9 4.3 4.3v28.5c0 2.4-1.9 4.3-4.3 4.3zM12.1 16.3c-.8 0-1.4.6-1.4 1.4v28.5c0 .8.6 1.4 1.4 1.4h39.8c.8 0 1.4-.6 1.4-1.4V17.7c0-.8-.6-1.4-1.4-1.4H12.1z"/><path d="M9.2 19.2h45.6v8.5H9.2zM13.5 33.4h1.4v2.9h-1.4zM16.3 33.4h1.5v2.9h-1.5zM19.2 33.4h1.4v2.9h-1.4zM23.5 33.4h1.4v2.9h-1.4zM26.3 33.4h1.4v2.9h-1.4zM29.2 33.4h1.4v2.9h-1.4zM33.4 33.4h1.4v2.9h-1.4zM36.3 33.4h1.4v2.9h-1.4zM39.1 33.4h1.4v2.9h-1.4zM43.4 33.4h1.4v2.9h-1.4zM46.2 33.4h1.5v2.9h-1.5zM49.1 33.4h1.4v2.9h-1.4z"/></g></svg>