<svg xmlns="http://www.w3.org/2000/svg" viewBox="0 0 75 25">
  <path fill-rule="evenodd" 
  d="M24.02 12.56c0-2.77 2.2-5 4.9-5a4.94 4.94 0 014.86 5.03c0 2.76-2.2 5.01-4.9 5a4.96 4.96 0 01-4.86-5.03m-18.36-.2c0-2.78 2.2-5.01 4.9-5a4.95 4.95 0 014.86 5.02c0 2.78-2.2 5.01-4.9 5a4.95 4.95 0 01-4.86-5.03m46.48.3a4.97 4.97 0 01-4.9 5 4.97 4.97 0 01-4.88-5.03c.01-2.78 2.21-5 4.92-5a4.95 4.95 0 014.86 5.03m14.87-4.71l-6.14 6.08c-.13-.46-.2-.96-.2-1.46a4.9 4.9 0 014.83-4.95c.9 0 1.34.3 1.5.33M42.56 24.12v-2.03c1.4.73 3 1.16 4.68 1.16 4.02.02 7.5-2.35 9.22-5.78a10.2 10.2 0 009 5.6h.61l2.9.01c.57 0 .85-.39.85-.92v-1.82-1.87c.01-.62-.28-.93-.84-.93H66.7l-1.28-.01a3.9 3.9 0 01-.76-.08l5.39-5.42.01.03 3.8-3.86c.36-.34.45-.6.2-1.03C72.2 4 69.3 2.09 65.52 2.07a10.16 10.16 0 00-9.09 5.67 10.33 10.33 0 00-9.14-5.72c-4-.02-7.47 2.3-9.2 5.7a10.3 10.3 0 00-9.16-5.76 10.18 10.18 0 00-8.02 3.89l.02-4.96c0-.58-.38-.88-.9-.88h-2.05L16.15 0c-.6 0-.9.3-.9.88V2.9a10.13 10.13 0 00-4.68-1.16C4.87 1.74.22 6.48.2 12.33.18 18.2 4.8 22.97 10.5 22.98a10.3 10.3 0 009.17-5.63 10.33 10.33 0 009.2 5.84c3.23.01 6.12-1.5 8.02-3.89l-.02 4.8c0 .59.38.88.9.88h2.05V25h1.83c.59 0 .9-.3.9-.88"/>
</svg>
