<svg width="16" height="16" viewBox="0 0 16 16" fill="none" xmlns="http://www.w3.org/2000/svg">
<path d="M7.91667 5.54167C7.28678 5.54167 6.68269 5.79189 6.23729 6.23729C5.79189 6.68269 5.54167 7.28678 5.54167 7.91667C5.54167 8.54656 5.79189 9.15065 6.23729 9.59605C6.68269 10.0414 7.28678 10.2917 7.91667 10.2917C8.54656 10.2917 9.15065 10.0414 9.59605 9.59605C10.0414 9.15065 10.2917 8.54656 10.2917 7.91667C10.2917 7.28678 10.0414 6.68269 9.59605 6.23729C9.15065 5.79189 8.54656 5.54167 7.91667 5.54167ZM7.91667 3.95833C8.96648 3.95833 9.9733 4.37537 10.7156 5.1177C11.458 5.86003 11.875 6.86685 11.875 7.91667C11.875 8.96648 11.458 9.9733 10.7156 10.7156C9.9733 11.458 8.96648 11.875 7.91667 11.875C6.86685 11.875 5.86003 11.458 5.1177 10.7156C4.37537 9.9733 3.95833 8.96648 3.95833 7.91667C3.95833 6.86685 4.37537 5.86003 5.1177 5.1177C5.86003 4.37537 6.86685 3.95833 7.91667 3.95833ZM13.0625 3.76042C13.0625 4.02287 12.9582 4.27458 12.7727 4.46016C12.5871 4.64574 12.3354 4.75 12.0729 4.75C11.8105 4.75 11.5588 4.64574 11.3732 4.46016C11.1876 4.27458 11.0833 4.02287 11.0833 3.76042C11.0833 3.49796 11.1876 3.24626 11.3732 3.06068C11.5588 2.87509 11.8105 2.77083 12.0729 2.77083C12.3354 2.77083 12.5871 2.87509 12.7727 3.06068C12.9582 3.24626 13.0625 3.49796 13.0625 3.76042ZM7.91667 1.58333C5.95808 1.58333 5.63825 1.58888 4.72704 1.62925C4.10638 1.65854 3.68996 1.74167 3.30363 1.89208C2.96004 2.02508 2.71225 2.18421 2.44863 2.44863C2.20084 2.68802 2.01032 2.9803 1.89129 3.30363C1.74088 3.69154 1.65775 4.10717 1.62925 4.72704C1.58808 5.60104 1.58333 5.90663 1.58333 7.91667C1.58333 9.87525 1.58888 10.1951 1.62925 11.1063C1.65854 11.7262 1.74167 12.1434 1.89129 12.5289C2.02588 12.8733 2.18421 13.1211 2.44704 13.3839C2.71383 13.6499 2.96163 13.809 3.30204 13.9405C3.69313 14.0917 4.10954 14.1756 4.72704 14.2041C5.60104 14.2453 5.90663 14.25 7.91667 14.25C9.87525 14.25 10.1951 14.2445 11.1063 14.2041C11.7254 14.1748 12.1426 14.0917 12.5289 13.942C12.8717 13.8083 13.1211 13.6491 13.3839 13.3863C13.6507 13.1195 13.8098 12.8717 13.9413 12.5313C14.0917 12.141 14.1756 11.7238 14.2041 11.1063C14.2453 10.2323 14.25 9.92671 14.25 7.91667C14.25 5.95808 14.2445 5.63825 14.2041 4.72704C14.1748 4.10796 14.0917 3.68996 13.9413 3.30363C13.8219 2.98063 13.6318 2.68847 13.3847 2.44863C13.1454 2.20071 12.8531 2.01017 12.5297 1.89129C12.1418 1.74088 11.7254 1.65775 11.1063 1.62925C10.2323 1.58808 9.92671 1.58333 7.91667 1.58333ZM7.91667 0C10.0676 0 10.336 0.00791662 11.1799 0.0475C12.023 0.0870833 12.597 0.219292 13.1021 0.415625C13.6246 0.616708 14.0648 0.889042 14.5049 1.32842C14.9075 1.72417 15.219 2.20288 15.4177 2.73125C15.6133 3.23554 15.7463 3.81029 15.7858 4.65342C15.823 5.49733 15.8333 5.76571 15.8333 7.91667C15.8333 10.0676 15.8254 10.336 15.7858 11.1799C15.7463 12.023 15.6133 12.597 15.4177 13.1021C15.2195 13.6307 14.908 14.1096 14.5049 14.5049C14.1091 14.9073 13.6304 15.2188 13.1021 15.4177C12.5978 15.6133 12.023 15.7463 11.1799 15.7858C10.336 15.823 10.0676 15.8333 7.91667 15.8333C5.76571 15.8333 5.49733 15.8254 4.65342 15.7858C3.81029 15.7463 3.23633 15.6133 2.73125 15.4177C2.20267 15.2194 1.72388 14.9078 1.32842 14.5049C0.92578 14.1092 0.614279 13.6305 0.415625 13.1021C0.219292 12.5978 0.0870833 12.023 0.0475 11.1799C0.0102916 10.336 0 10.0676 0 7.91667C0 5.76571 0.00791662 5.49733 0.0475 4.65342C0.0870833 3.8095 0.219292 3.23633 0.415625 2.73125C0.613729 2.20256 0.925303 1.72371 1.32842 1.32842C1.72399 0.925641 2.20276 0.614119 2.73125 0.415625C3.23633 0.219292 3.8095 0.0870833 4.65342 0.0475C5.49733 0.0102916 5.76571 0 7.91667 0Z" fill="#E0BEA2"/>
</svg>
