<svg width="43" height="13" viewBox="0 0 43 13" fill="none" xmlns="http://www.w3.org/2000/svg">
<path d="M1.592 1.93V13H0.674V0.219999H1.43L10.34 11.47V0.219999H11.258V13H10.358L1.592 1.93ZM23.1099 12.172V13H14.5959V0.219999H22.9479V1.048H15.5139V6.07H22.0119V6.862H15.5139V12.172H23.1099ZM30.5134 0.309999H31.4134L33.3214 4.954L35.2294 0.309999H36.1294L33.8794 5.692L36.5614 11.92L41.4574 0.219999H42.4654L36.9934 13H36.1474L33.3394 6.43L30.5134 13H29.6674L24.2134 0.219999H25.2034L30.1174 11.92L32.7634 5.692L30.5134 0.309999Z" fill="white"/>
</svg>
