<svg width="17" height="17" viewBox="0 0 17 17" fill="none" xmlns="http://www.w3.org/2000/svg">
<path d="M8.5 14.8334C10.1797 14.8334 11.7906 14.1661 12.9783 12.9784C14.1661 11.7907 14.8333 10.1797 14.8333 8.50004C14.8333 6.82034 14.1661 5.20943 12.9783 4.0217C11.7906 2.83397 10.1797 2.16671 8.5 2.16671C6.82029 2.16671 5.20938 2.83397 4.02165 4.0217C2.83392 5.20943 2.16666 6.82034 2.16666 8.50004C2.16666 10.1797 2.83392 11.7907 4.02165 12.9784C5.20938 14.1661 6.82029 14.8334 8.5 14.8334ZM8.5 16.4167C4.12762 16.4167 0.583328 12.8724 0.583328 8.50004C0.583328 4.12767 4.12762 0.583374 8.5 0.583374C12.8724 0.583374 16.4167 4.12767 16.4167 8.50004C16.4167 12.8724 12.8724 16.4167 8.5 16.4167ZM6.03791 9.42629L4.06033 8.80958C3.63283 8.67896 3.63045 8.38446 4.15612 8.17308L11.8614 5.19642C12.3087 5.01433 12.562 5.24471 12.4172 5.82183L11.1054 12.0127C11.0135 12.4536 10.7483 12.5589 10.3802 12.3555L8.36066 10.8608L7.41937 11.7696C7.32279 11.863 7.24441 11.943 7.09558 11.9628C6.94754 11.9834 6.82562 11.939 6.73616 11.6936L6.04741 9.42075L6.03791 9.42629Z" fill="#E0BEA2"/>
</svg>
